HIERARCHY
ROOT Hips
{
  OFFSET 5.80788e-005 67.184 3.4734
  CHANNELS 6 Xposition Yposition Zposition Zrotation Xrotation Yrotation
  JOINT Chest
  {
    OFFSET 0 8.7983 -4.7612
    CHANNELS 6 Xposition Yposition Zposition Zrotation Xrotation Yrotation
    JOINT Chest2
    {
      OFFSET 0 8.0291 0.4195
      CHANNELS 6 Xposition Yposition Zposition Zrotation Xrotation Yrotation
      JOINT Chest3
      {
        OFFSET 0 9.9351 -2.2114
        CHANNELS 6 Xposition Yposition Zposition Zrotation Xrotation Yrotation
        JOINT Neck
        {
          OFFSET 0 22.3885 -0.4656
          CHANNELS 6 Xposition Yposition Zposition Zrotation Xrotation Yrotation
          JOINT Head
          {
            OFFSET -0.0001 12.643 3.4389
            CHANNELS 6 Xposition Yposition Zposition Zrotation Xrotation Yrotation
            End Site
            {
              OFFSET 0.0001 17.6655 0.5274
            }
          }
        }
        JOINT LeftCollar
        {
          OFFSET 2.2603 21.606 7.4023
          CHANNELS 6 Xposition Yposition Zposition Zrotation Xrotation Yrotation
          JOINT LeftShoulder
          {
            OFFSET 13.5163 -1.1332 -5.0146
            CHANNELS 6 Xposition Yposition Zposition Zrotation Xrotation Yrotation
            JOINT LeftElbow
            {
              OFFSET -0.0995 -28.05 -0.2431
              CHANNELS 6 Xposition Yposition Zposition Zrotation Xrotation Yrotation
              JOINT LeftWrist
              {
                OFFSET 0.0679 -23.3996 -0.1402
                CHANNELS 6 Xposition Yposition Zposition Zrotation Xrotation Yrotation
                JOINT LeftFinger1
                {
                  OFFSET 0.7932 -9.069 2.5189
                  CHANNELS 6 Xposition Yposition Zposition Zrotation Xrotation Yrotation
                  JOINT LeftFinger11
                  {
                    OFFSET -0.8272 -3.3923 0.5977
                    CHANNELS 6 Xposition Yposition Zposition Zrotation Xrotation Yrotation
                    JOINT LeftFinger12
                    {
                      OFFSET -0.5649 -2.3158 0.4082
                      CHANNELS 6 Xposition Yposition Zposition Zrotation Xrotation Yrotation
                      End Site
                      {
                        OFFSET -0.4919 -1.6479 0.2673
                      }
                    }
                  }
                }
                JOINT LeftFinger2
                {
                  OFFSET 0.9159 -9.2044 0.2193
                  CHANNELS 6 Xposition Yposition Zposition Zrotation Xrotation Yrotation
                  JOINT LeftFinger21
                  {
                    OFFSET 0.0117 -4.1944 -0.0248
                    CHANNELS 6 Xposition Yposition Zposition Zrotation Xrotation Yrotation
                    JOINT LeftFinger22
                    {
                      OFFSET 0.0071 -2.3249 -0.0142
                      CHANNELS 6 Xposition Yposition Zposition Zrotation Xrotation Yrotation
                      End Site
                      {
                        OFFSET -0.1475 -2.0882 0.0028
                      }
                    }
                  }
                }
                JOINT LeftFinger3
                {
                  OFFSET 0.6113 -8.7231 -2.0637
                  CHANNELS 6 Xposition Yposition Zposition Zrotation Xrotation Yrotation
                  JOINT LeftFinger31
                  {
                    OFFSET -0.1927 -3.8059 -0.2383
                    CHANNELS 6 Xposition Yposition Zposition Zrotation Xrotation Yrotation
                    JOINT LeftFinger32
                    {
                      OFFSET -0.1091 -2.1688 -0.1362
                      CHANNELS 6 Xposition Yposition Zposition Zrotation Xrotation Yrotation
                      End Site
                      {
                        OFFSET -0.2358 -1.9176 -0.0906
                      }
                    }
                  }
                }
                JOINT LeftFinger4
                {
                  OFFSET -0.6151 -8.0947 -3.5641
                  CHANNELS 6 Xposition Yposition Zposition Zrotation Xrotation Yrotation
                  JOINT LeftFinger41
                  {
                    OFFSET -0.4882 -2.341 -0.6462
                    CHANNELS 6 Xposition Yposition Zposition Zrotation Xrotation Yrotation
                    JOINT LeftFinger42
                    {
                      OFFSET -0.3575 -1.7167 -0.4742
                      CHANNELS 6 Xposition Yposition Zposition Zrotation Xrotation Yrotation
                      End Site
                      {
                        OFFSET -0.4187 -1.5237 -0.3496
                      }
                    }
                  }
                }
                JOINT LeftFinger0
                {
                  OFFSET -1.42 -1.8761 1.4223
                  CHANNELS 6 Xposition Yposition Zposition Zrotation Xrotation Yrotation
                  JOINT LeftFinger01
                  {
                    OFFSET -1.1471 -3.4929 2.6334
                    CHANNELS 6 Xposition Yposition Zposition Zrotation Xrotation Yrotation
                    JOINT LeftFinger02
                    {
                      OFFSET -0.823 -2.3 1.6571
                      CHANNELS 6 Xposition Yposition Zposition Zrotation Xrotation Yrotation
                      End Site
                      {
                        OFFSET -0.5822 -1.6914 1.1582
                      }
                    }
                  }
                }
              }
            }
          }
        }
        JOINT RightCollar
        {
          OFFSET -2.2603 21.606 7.4023
          CHANNELS 6 Xposition Yposition Zposition Zrotation Xrotation Yrotation
          JOINT RightShoulder
          {
            OFFSET -13.5187 -1.1334 -5.0155
            CHANNELS 6 Xposition Yposition Zposition Zrotation Xrotation Yrotation
            JOINT RightElbow
            {
              OFFSET 0.0994 -28.0499 -0.2431
              CHANNELS 6 Xposition Yposition Zposition Zrotation Xrotation Yrotation
              JOINT RightWrist
              {
                OFFSET -0.0679 -23.3996 -0.1402
                CHANNELS 6 Xposition Yposition Zposition Zrotation Xrotation Yrotation
                JOINT RightFinger1
                {
                  OFFSET -0.7932 -9.0691 2.5189
                  CHANNELS 6 Xposition Yposition Zposition Zrotation Xrotation Yrotation
                  JOINT RightFinger11
                  {
                    OFFSET 0.8272 -3.3923 0.5977
                    CHANNELS 6 Xposition Yposition Zposition Zrotation Xrotation Yrotation
                    JOINT RightFinger12
                    {
                      OFFSET 0.565 -2.3158 0.4082
                      CHANNELS 6 Xposition Yposition Zposition Zrotation Xrotation Yrotation
                      End Site
                      {
                        OFFSET 0.4919 -1.6479 0.2673
                      }
                    }
                  }
                }
                JOINT RightFinger2
                {
                  OFFSET -0.916 -9.2044 0.2193
                  CHANNELS 6 Xposition Yposition Zposition Zrotation Xrotation Yrotation
                  JOINT RightFinger21
                  {
                    OFFSET -0.0117 -4.1944 -0.0248
                    CHANNELS 6 Xposition Yposition Zposition Zrotation Xrotation Yrotation
                    JOINT RightFinger22
                    {
                      OFFSET -0.0071 -2.3249 -0.0142
                      CHANNELS 6 Xposition Yposition Zposition Zrotation Xrotation Yrotation
                      End Site
                      {
                        OFFSET 0.1475 -2.0882 0.0028
                      }
                    }
                  }
                }
                JOINT RightFinger3
                {
                  OFFSET -0.6113 -8.7231 -2.0637
                  CHANNELS 6 Xposition Yposition Zposition Zrotation Xrotation Yrotation
                  JOINT RightFinger31
                  {
                    OFFSET 0.1927 -3.8059 -0.2383
                    CHANNELS 6 Xposition Yposition Zposition Zrotation Xrotation Yrotation
                    JOINT RightFinger32
                    {
                      OFFSET 0.1091 -2.1688 -0.1362
                      CHANNELS 6 Xposition Yposition Zposition Zrotation Xrotation Yrotation
                      End Site
                      {
                        OFFSET 0.2358 -1.9176 -0.0906
                      }
                    }
                  }
                }
                JOINT RightFinger4
                {
                  OFFSET 0.6151 -8.0947 -3.564
                  CHANNELS 6 Xposition Yposition Zposition Zrotation Xrotation Yrotation
                  JOINT RightFinger41
                  {
                    OFFSET 0.4882 -2.341 -0.6462
                    CHANNELS 6 Xposition Yposition Zposition Zrotation Xrotation Yrotation
                    JOINT RightFinger42
                    {
                      OFFSET 0.3574 -1.7166 -0.4742
                      CHANNELS 6 Xposition Yposition Zposition Zrotation Xrotation Yrotation
                      End Site
                      {
                        OFFSET 0.4187 -1.5237 -0.3496
                      }
                    }
                  }
                }
                JOINT RightFinger0
                {
                  OFFSET 1.4199 -1.8761 1.4221
                  CHANNELS 6 Xposition Yposition Zposition Zrotation Xrotation Yrotation
                  JOINT RightFinger01
                  {
                    OFFSET 1.1472 -3.4929 2.6336
                    CHANNELS 6 Xposition Yposition Zposition Zrotation Xrotation Yrotation
                    JOINT RightFinger02
                    {
                      OFFSET 0.8229 -2.3 1.6571
                      CHANNELS 6 Xposition Yposition Zposition Zrotation Xrotation Yrotation
                      End Site
                      {
                        OFFSET 0.5822 -1.6914 1.1582
                      }
                    }
                  }
                }
              }
            }
          }
        }
      }
    }
  }
  JOINT RightHip
  {
    OFFSET -9.412 3.9771 -0.7758
    CHANNELS 6 Xposition Yposition Zposition Zrotation Xrotation Yrotation
    JOINT RightKnee
    {
      OFFSET -0.7531 -40.938 0
      CHANNELS 6 Xposition Yposition Zposition Zrotation Xrotation Yrotation
      JOINT RightAnkle
      {
        OFFSET 0 -40.1986 0
        CHANNELS 6 Xposition Yposition Zposition Zrotation Xrotation Yrotation
        JOINT RightToe
        {
          OFFSET 0 -4.4182 9.239
          CHANNELS 6 Xposition Yposition Zposition Zrotation Xrotation Yrotation
          End Site
          {
            OFFSET 0 0 6.1981
          }
        }
      }
    }
  }
  JOINT LeftHip
  {
    OFFSET 9.4119 3.9773 -0.7758
    CHANNELS 6 Xposition Yposition Zposition Zrotation Xrotation Yrotation
    JOINT LeftKnee
    {
      OFFSET 0.7532 -40.9383 0
      CHANNELS 6 Xposition Yposition Zposition Zrotation Xrotation Yrotation
      JOINT LeftAnkle
      {
        OFFSET 0 -40.1986 0
        CHANNELS 6 Xposition Yposition Zposition Zrotation Xrotation Yrotation
        JOINT LeftToe
        {
          OFFSET 0 -4.4182 9.239
          CHANNELS 6 Xposition Yposition Zposition Zrotation Xrotation Yrotation
          End Site
          {
            OFFSET 0 0 6.1981
          }
        }
      }
    }
  }
}
MOTION
Frames:	4
Frame Time:	0.0333333
5.80788e-005 67.184 3.4734 0 0 -0 0 8.7983 -4.7612 0 0 -0 0 8.0291 0.4195 0 0 -0 0 9.9351 -2.2114 0 0 -0 0 22.3885 -0.4656 0 0 -0 -0.0001 12.643 3.4389 0 0 -0 2.2603 21.606 7.4023 0 0 -12.5014 13.5163 -1.1332 -5.0146 88.1196 14.2451 10.6914 -0.0995 -28.05 -0.2431 -0.00160068 -0.00239207 0.000740045 0.0679 -23.3996 -0.1402 -8.4365e-005 7.00714e-005 -9.52055e-007 0.7932 -9.069 2.5189 9.93923e-017 -1.98785e-016 -1.59028e-015 -0.8272 -3.3923 0.5977 9.93923e-017 -5.96354e-016 -1.59028e-015 -0.5649 -2.3158 0.4082 -9.93923e-017 -5.96354e-016 -1.59028e-015 0.9159 -9.2044 0.2193 9.93923e-017 -1.98785e-016 -1.59028e-015 0.0117 -4.1944 -0.0248 -0.0128176 0.00232552 8.52707e-005 0.0071 -2.3249 -0.0142 9.93923e-017 5.96354e-016 -0 0.6113 -8.7231 -2.0637 9.93923e-017 -1.98785e-016 -1.59028e-015 -0.1927 -3.8059 -0.2383 -0.0160551 0.00299681 0.000857156 -0.1091 -2.1688 -0.1362 -2.48481e-016 0 3.18055e-015 -0.6151 -8.0947 -3.5641 9.93923e-017 -1.98785e-016 -1.59028e-015 -0.4882 -2.341 -0.6462 -0.0125865 0.0031206 0.00282719 -0.3575 -1.7167 -0.4742 0 1.98785e-016 -0 -1.42 -1.8761 1.4223 9.93923e-017 -1.98785e-016 -1.59028e-015 -1.1471 -3.4929 2.6334 9.93923e-017 -5.96354e-016 -1.59028e-015 -0.823 -2.3 1.6571 -9.93923e-017 -5.96354e-016 -1.59028e-015 -2.2603 21.606 7.4023 -0.865644 0.16582 7.03859 -13.5187 -1.1334 -5.0155 -88.0329 10.2057 -10.5567 0.0994 -28.0499 -0.2431 0.0015593 -0.00248883 -0.000788628 -0.0679 -23.3996 -0.1402 7.87605e-005 4.10553e-005 1.24965e-005 -0.7932 -9.0691 2.5189 -3.97569e-016 -7.95139e-016 3.18055e-015 0.8272 -3.3923 0.5977 -1.98785e-016 -3.97569e-016 3.18055e-015 0.565 -2.3158 0.4082 -1.98785e-016 0 3.18055e-015 -0.916 -9.2044 0.2193 -3.97569e-016 -7.95139e-016 3.18055e-015 -0.0117 -4.1944 -0.0248 0.0129473 0.00231697 -8.70038e-005 -0.0071 -2.3249 -0.0142 9.93923e-017 -7.95139e-016 1.59028e-015 -0.6113 -8.7231 -2.0637 -3.97569e-016 -7.95139e-016 3.18055e-015 0.1927 -3.8059 -0.2383 0.0163314 0.00303369 -0.000872333 0.1091 -2.1688 -0.1362 3.97569e-016 7.95139e-016 -3.18055e-015 0.6151 -8.0947 -3.564 -3.97569e-016 -7.95139e-016 3.18055e-015 0.4882 -2.341 -0.6462 0.0145763 0.00367772 -0.00326275 0.3574 -1.7166 -0.4742 9.93923e-017 -3.97569e-016 -0 1.4199 -1.8761 1.4221 -3.97569e-016 -7.95139e-016 3.18055e-015 1.1472 -3.4929 2.6336 -1.98785e-016 -3.97569e-016 3.18055e-015 0.8229 -2.3 1.6571 -1.98785e-016 0 3.18055e-015 -9.412 3.9771 -0.7758 3.42485 1.36937 -0.0640303 -0.7531 -40.938 0 0.000136572 0.69354 0.00145564 1.77636e-015 -40.1986 -1.11022e-016 -3.42573 -2.06297 -0.0607933 8.88178e-016 -4.4182 9.239 -3.19502e-024 0 -1.48106e-024 9.4119 3.9773 -0.7758 -3.42498 1.36123 0.0639712 0.7532 -40.9383 2.22045e-016 -6.769e-005 0.712612 -0.0012277 8.88179e-016 -40.1986 0 3.42582 -2.07388 0.0612819 -8.88178e-016 -4.4182 9.239 2.55305e-023 0 -2.31416e-026 
43.5751 32.7255 22.5114 168.754 54.1919 -0 -7.10543e-015 8.7983 -4.7612 -0.182309 -1.53535 0.146208 0 8.0291 0.4195 -0.360897 -3.07116 0.287682 0 9.9351 -2.2114 -0.360895 -3.07115 0.287682 0 22.3885 -0.4656 2.59263e-005 16.9932 -1.71275e-005 -0.0001 12.643 3.4389 -6.18231e-007 12.239 2.70047e-006 2.2603 21.606 7.4023 6.54476 1.57082 6.62711 13.5163 -1.1332 -5.0146 100.394 32.7127 -57.4884 -0.0995 -28.05 -0.2431 -41.8255 -34.6048 -80.572 0.0679 -23.3996 -0.1402 1.85667 8.48199 1.63269 0.7932 -9.069 2.5189 -3.18055e-015 -3.18055e-015 3.18055e-015 -0.8272 -3.3923 0.5977 -3.18055e-015 -3.18055e-015 -1.59028e-015 -0.5649 -2.3158 0.4082 -2.64834e-031 -9.54166e-015 -1.59028e-015 0.9159 -9.2044 0.2193 -3.18055e-015 -3.18055e-015 3.18055e-015 0.0117 -4.1944 -0.0248 -0.0128368 0.00233359 8.02095e-005 0.0071 -2.3249 -0.0142 5.04259e-006 -3.33314e-006 3.91926e-006 0.6113 -8.7231 -2.0637 -3.18055e-015 -3.18055e-015 3.18055e-015 -0.1927 -3.8059 -0.2383 -0.0160478 0.00299457 0.00085804 -0.1091 -2.1688 -0.1362 2.52134e-006 -5.5837e-007 1.95964e-006 -0.6151 -8.0947 -3.5641 -3.18055e-015 -3.18055e-015 3.18055e-015 -0.4882 -2.341 -0.6462 -0.012602 0.00313311 0.00282536 -0.3575 -1.7167 -0.4742 -6.01017e-006 5.83517e-006 7.1626e-006 -1.42 -1.8761 1.4223 -3.18055e-015 -3.18055e-015 3.18055e-015 -1.1471 -3.4929 2.6334 -3.18055e-015 -3.18055e-015 -1.59028e-015 -0.823 -2.3 1.6571 -2.64834e-031 -9.54166e-015 -1.59028e-015 -2.2603 21.606 7.4023 -7.3267 2.01216 -12.079 -13.5187 -1.1334 -5.0155 -100.676 27.2522 57.0104 0.0994 -28.0499 -0.2431 41.6025 -36.4147 80.5984 -0.0679 -23.3996 -0.1402 -1.82329 8.50787 -1.52781 -0.7932 -9.0691 2.5189 -4.81546e-006 -1.20432e-006 3.05607e-006 0.8272 -3.3923 0.5977 6.36111e-015 -9.54166e-015 -3.18055e-015 0.565 -2.3158 0.4082 -5.29669e-031 -9.54166e-015 -3.18055e-015 -0.916 -9.2044 0.2193 -4.81546e-006 -1.20432e-006 3.05607e-006 -0.0117 -4.1944 -0.0248 0.0130018 0.0023257 -8.21246e-005 -0.0071 -2.3249 -0.0142 -3.58452e-006 -2.56465e-007 4.78283e-007 -0.6113 -8.7231 -2.0637 -4.81546e-006 -1.20432e-006 3.05607e-006 0.1927 -3.8059 -0.2383 0.0163702 0.00304412 -0.000873495 0.1091 -2.1688 -0.1362 -1.74718e-006 -2.80559e-008 1.16875e-006 0.6151 -8.0947 -3.564 -4.81546e-006 -1.20432e-006 3.05607e-006 0.4882 -2.341 -0.6462 0.0145824 0.00368167 -0.00326255 0.3574 -1.7166 -0.4742 -6.52456e-006 -9.35023e-006 9.71107e-006 1.4199 -1.8761 1.4221 -4.81546e-006 -1.20432e-006 3.05607e-006 1.1472 -3.4929 2.6336 6.36111e-015 -9.54166e-015 -3.18055e-015 0.8229 -2.3 1.6571 -5.29669e-031 -9.54166e-015 -3.18055e-015 -9.412 3.9771 -0.7758 -42.2932 35.8988 -28.6196 -0.7531 -40.938 0 -78.0682 37.6365 77.3708 0 -40.1986 1.42109e-014 20.8635 12.3033 10.8233 7.10543e-015 -4.4182 9.239 -1.41564e-007 -7.16467e-008 -1.55305e-006 9.4119 3.9773 -0.7758 42.3862 35.1358 28.7989 0.7532 -40.9383 0 79.6421 37.9857 -78.6763 0 -40.1986 -1.77636e-015 -20.5773 11.7321 -11.1354 0 -4.4182 9.239 -8.32912e-007 -5.39145e-007 -7.05114e-009 
39.8406 36.0082 21.2403 -179.996 51.0054 -5.63132e-008 0 8.7983 -4.7612 -0.170624 -1.55056 0.138721 0 8.0291 0.4195 -0.337675 -3.10149 0.27297 0 9.9351 -2.2114 -0.337675 -3.10149 0.27297 7.10543e-015 22.3885 -0.4656 1.06283e-005 15.9935 -7.17136e-006 -0.0001 12.643 3.4389 1.43415e-007 13.5394 -8.0904e-008 2.2603 21.606 7.4023 6.29658 1.6462 5.95711 13.5163 -1.1332 -5.0146 99.5958 31.7092 -53.3938 -0.0995 -28.05 -0.2431 -39.399 -32.402 -75.9566 0.0679 -23.3996 -0.1402 1.74082 7.73498 1.13231 0.7932 -9.069 2.5189 1.19828e-006 -3.1671e-006 9.343e-007 -0.8272 -3.3923 0.5977 -1.21936e-006 1.19449e-006 -3.10535e-006 -0.5649 -2.3158 0.4082 -2.37547e-006 9.25975e-007 3.02456e-007 0.9159 -9.2044 0.2193 1.19828e-006 -3.1671e-006 9.343e-007 0.0117 -4.1944 -0.0248 -0.0128513 0.00233293 8.02042e-005 0.0071 -2.3249 -0.0142 -1.1422e-006 -7.17291e-006 -2.49138e-006 0.6113 -8.7231 -2.0637 1.19828e-006 -3.1671e-006 9.343e-007 -0.1927 -3.8059 -0.2383 -0.0160623 0.00300451 0.000857165 -0.1091 -2.1688 -0.1362 -2.43735e-006 -5.05771e-006 -6.21089e-006 -0.6151 -8.0947 -3.5641 1.19828e-006 -3.1671e-006 9.343e-007 -0.4882 -2.341 -0.6462 -0.0125885 0.00312716 0.0028255 -0.3575 -1.7167 -0.4742 4.80417e-006 -8.66813e-006 -1.02321e-005 -1.42 -1.8761 1.4223 1.19828e-006 -3.1671e-006 9.343e-007 -1.1471 -3.4929 2.6334 -1.21936e-006 1.19449e-006 -3.10535e-006 -0.823 -2.3 1.6571 -2.37547e-006 9.25975e-007 3.02456e-007 -2.2603 21.606 7.4023 -7.06959 2.06561 -11.3825 -13.5187 -1.1334 -5.0155 -99.9386 26.366 52.9835 0.0994 -28.0499 -0.2431 39.0802 -34.1267 75.9478 -0.0679 -23.3996 -0.1402 -1.71486 7.7685 -1.02595 -0.7932 -9.0691 2.5189 1.12668e-006 -2.17671e-006 3.16778e-006 0.8272 -3.3923 0.5977 -7.06225e-031 -1.27222e-014 -3.18055e-015 0.565 -2.3158 0.4082 2.22654e-006 2.57558e-006 1.9932e-006 -0.916 -9.2044 0.2193 1.12668e-006 -2.17671e-006 3.16778e-006 -0.0117 -4.1944 -0.0248 0.0129466 0.00232301 -9.54971e-005 -0.0071 -2.3249 -0.0142 -2.20138e-006 -5.25945e-007 2.34909e-006 -0.6113 -8.7231 -2.0637 1.12668e-006 -2.17671e-006 3.16778e-006 0.1927 -3.8059 -0.2383 0.0163443 0.00303884 -0.000878151 0.1091 -2.1688 -0.1362 1.25445e-008 -2.19685e-006 2.17123e-006 0.6151 -8.0947 -3.564 1.12668e-006 -2.17671e-006 3.16778e-006 0.4882 -2.341 -0.6462 0.0146523 0.00368343 -0.00327935 0.3574 -1.7166 -0.4742 6.36111e-015 6.36111e-015 -3.18055e-015 1.4199 -1.8761 1.4221 1.12668e-006 -2.17671e-006 3.16778e-006 1.1472 -3.4929 2.6336 -7.06225e-031 -1.27222e-014 -3.18055e-015 0.8229 -2.3 1.6571 2.22654e-006 2.57558e-006 1.9932e-006 -9.412 3.9771 -0.7758 -41.6366 33.5676 -26.9213 -0.7531 -40.938 0 -71.9218 39.0456 72.379 0 -40.1986 0 18.2664 11.7833 11.6566 -2.84217e-014 -4.4182 9.239 -3.93181e-006 -6.2595e-007 -2.80412e-006 9.4119 3.9773 -0.7758 41.7539 33.3913 26.7153 0.7532 -40.9383 -1.77636e-015 72.4763 39.3331 -72.7483 1.77636e-015 -40.1986 0 -18.391 11.5116 -11.8957 -8.88179e-016 -4.4182 9.239 9.73843e-007 1.9924e-007 2.84128e-006 
39.841 36.0079 21.2406 -179.996 51.0054 -5.33319e-008 0 8.7983 -4.7612 -0.171139 -1.65042 0.137806 0 8.0291 0.4195 -0.338515 -3.3012 0.270847 -7.10543e-015 9.9351 -2.2114 -0.338515 -3.3012 0.270847 0 22.3885 -0.4656 -1.53005e-006 15.9934 8.77272e-007 -0.0001 12.643 3.4389 -3.26606e-007 15.453 3.93226e-007 2.2603 21.606 7.4023 6.39717 1.79627 6.38757 13.5163 -1.1332 -5.0146 99.5935 31.6897 -53.3912 -0.0995 -28.05 -0.2431 -39.399 -32.402 -75.9566 0.0679 -23.3996 -0.1402 1.73276 7.50065 0.745146 0.7932 -9.069 2.5189 6.06555e-006 -2.21588e-006 6.7952e-006 -0.8272 -3.3923 0.5977 6.36111e-015 6.36111e-015 7.95139e-015 -0.5649 -2.3158 0.4082 -1.23715e-006 -2.04196e-006 -3.1012e-006 0.9159 -9.2044 0.2193 6.06555e-006 -2.21588e-006 6.7952e-006 0.0117 -4.1944 -0.0248 -0.0128155 0.00233696 8.50617e-005 0.0071 -2.3249 -0.0142 -1.20724e-006 -1.14965e-007 -9.23548e-007 0.6113 -8.7231 -2.0637 6.06555e-006 -2.21588e-006 6.7952e-006 -0.1927 -3.8059 -0.2383 -0.0160486 0.0029938 0.000857034 -0.1091 -2.1688 -0.1362 -2.41454e-006 2.94478e-006 -1.8471e-006 -0.6151 -8.0947 -3.5641 6.06555e-006 -2.21588e-006 6.7952e-006 -0.4882 -2.341 -0.6462 -0.0125485 0.00310943 0.00281356 -0.3575 -1.7167 -0.4742 1.20722e-006 -3.18055e-015 9.23527e-007 -1.42 -1.8761 1.4223 6.06555e-006 -2.21588e-006 6.7952e-006 -1.1471 -3.4929 2.6334 6.36111e-015 6.36111e-015 7.95139e-015 -0.823 -2.3 1.6571 -1.23715e-006 -2.04196e-006 -3.1012e-006 -2.2603 21.606 7.4023 -7.15482 2.20909 -11.7877 -13.5187 -1.1334 -5.0155 -99.9386 26.366 52.9835 0.0994 -28.0499 -0.2431 39.0802 -34.1267 75.9478 -0.0679 -23.3996 -0.1402 -1.71236 7.54284 -0.631863 -0.7932 -9.0691 2.5189 -6.36111e-015 -3.18055e-015 6.36111e-015 0.8272 -3.3923 0.5977 -3.18055e-015 -9.54166e-015 1.59028e-014 0.565 -2.3158 0.4082 -1.12257e-006 -4.49574e-006 -9.86414e-007 -0.916 -9.2044 0.2193 -6.36111e-015 -3.18055e-015 6.36111e-015 -0.0117 -4.1944 -0.0248 0.0129885 0.00233586 -9.00866e-005 -0.0071 -2.3249 -0.0142 2.28727e-006 3.54261e-006 6.32944e-006 -0.6113 -8.7231 -2.0637 -6.36111e-015 -3.18055e-015 6.36111e-015 0.1927 -3.8059 -0.2383 0.01632 0.0030237 -0.000873309 0.1091 -2.1688 -0.1362 1.08128e-006 1.16669e-005 -3.37013e-006 0.6151 -8.0947 -3.564 -6.36111e-015 -3.18055e-015 6.36111e-015 0.4882 -2.341 -0.6462 0.0145803 0.00368349 -0.00326611 0.3574 -1.7166 -0.4742 3.18055e-015 3.18055e-015 3.18055e-015 1.4199 -1.8761 1.4221 -6.36111e-015 -3.18055e-015 6.36111e-015 1.1472 -3.4929 2.6336 -3.18055e-015 -9.54166e-015 1.59028e-014 0.8229 -2.3 1.6571 -1.12257e-006 -4.49574e-006 -9.86414e-007 -9.412 3.9771 -0.7758 -42.6984 33.2036 -27.4384 -0.7531 -40.938 7.10543e-015 -71.9158 39.0448 72.3555 0 -40.1986 -7.10543e-015 17.0295 12.051 12.8683 1.42109e-014 -4.4182 9.239 -4.77083e-015 -2.2275e-007 3.18055e-015 9.4119 3.9773 -0.7758 42.5062 33.1288 27.1435 0.7532 -40.9383 0 72.4736 39.3327 -72.7331 0 -40.1986 0 -17.5111 11.7182 -12.761 0 -4.4182 9.239 1.96566e-006 -9.05535e-007 1.40249e-006 
